<svg width="119" height="42" viewBox="0 0 119 42" fill="none" xmlns="http://www.w3.org/2000/svg">
<path d="M20.6182 2.80762C15.8485 2.9667 11.3322 4.99367 8.04307 8.45159C4.75389 11.9095 2.95521 16.5214 3.03476 21.2932C3.11432 26.0649 5.06573 30.6143 8.46834 33.9607C11.871 37.307 16.4523 39.1823 21.2247 39.1823C25.9971 39.1823 30.5784 37.307 33.981 33.9607C37.3836 30.6143 39.335 26.0649 39.4146 21.2932C39.4941 16.5214 37.6954 11.9095 34.4062 8.45159C31.1171 4.99367 26.6008 2.9667 21.8311 2.80762H20.6182ZM46.0876 2.80762C41.3179 2.9667 36.8016 4.99367 33.5125 8.45159C30.2233 11.9095 28.4246 16.5214 28.5042 21.2932C28.5837 26.0649 30.5351 30.6143 33.9377 33.9607C37.3403 37.307 41.9216 39.1823 46.694 39.1823C51.4665 39.1823 56.0478 37.307 59.4504 33.9607C62.853 30.6143 64.8044 26.0649 64.8839 21.2932C64.9635 16.5214 63.1648 11.9095 59.8756 8.45159C56.5865 4.99367 52.0702 2.9667 47.3005 2.80762H46.0876ZM71.557 2.80762C66.7873 2.9667 62.271 4.99367 58.9818 8.45159C55.6927 11.9095 53.894 16.5214 53.9735 21.2932C54.0531 26.0649 56.0045 30.6143 59.4071 33.9607C62.8097 37.307 67.391 39.1823 72.1634 39.1823C76.9358 39.1823 81.5171 37.307 84.9198 33.9607C88.3224 30.6143 90.2738 26.0649 90.3533 21.2932C90.4329 16.5214 88.6342 11.9095 85.345 8.45159C82.0558 4.99367 77.5396 2.9667 72.7699 2.80762H71.557ZM97.0264 2.80762C92.2567 2.9667 87.7404 4.99367 84.4512 8.45159C81.1621 11.9095 79.3634 16.5214 79.4429 21.2932C79.5225 26.0649 81.4739 30.6143 84.8765 33.9607C88.2791 37.307 92.8604 39.1823 97.6328 39.1823C102.405 39.1823 106.987 37.307 110.389 33.9607C113.792 30.6143 115.743 26.0649 115.823 21.2932C115.902 16.5214 114.104 11.9095 110.814 8.45159C107.525 4.99367 103.009 2.9667 98.2392 2.80762H97.0264Z" stroke="#737373" stroke-width="1.82857"/>
</svg>
