<svg width="61" height="54" viewBox="0 0 61 54" fill="none" xmlns="http://www.w3.org/2000/svg">
<path fill-rule="evenodd" clip-rule="evenodd" d="M58.4054 50.932C53.2172 46.4835 37.803 33.8253 30.4858 33.8253C23.1653 33.8253 7.76295 46.4749 2.5715 50.9266C2.54032 49.875 2.51129 49.2362 2.51129 48.2997C2.51129 48.2997 2.38441 46.7534 3.75216 45.2061C15.006 35.0092 26.8051 30.0199 27.1675 29.8672C30.6858 28.3801 30.4879 28.6597 30.4847 22.6919C30.4847 22.6919 30.6417 22.6822 30.7417 22.693C35.6966 23.1413 49.0182 36.0705 56.9022 44.8115C56.9161 44.8265 58.4581 46.6115 58.4581 48.4932C58.4602 49.375 58.4344 50.2449 58.4054 50.932ZM58.1936 43.6351C57.3559 42.7061 37.6278 20.9295 30.4858 20.9295C23.3459 20.9295 3.61667 42.7061 2.78011 43.634L2.77903 43.6351C2.69731 43.7265 0.771484 45.9276 0.771484 48.4943C0.771484 50.4922 0.903744 52.5029 0.905894 52.5223C0.910195 52.6148 0.956432 53.4642 1.42848 53.6954C1.50482 53.7331 1.58762 53.7524 1.67257 53.7524C1.84784 53.7524 2.04354 53.6739 2.25537 53.5191C2.46828 53.3309 22.5663 35.5791 30.4858 35.5791C38.4063 35.5791 58.5054 53.3309 58.7065 53.5105C58.9258 53.6718 59.1237 53.7524 59.3011 53.7524C59.3871 53.7524 59.4678 53.7331 59.5452 53.6965C60.0162 53.4664 60.0624 52.6158 60.0667 52.5201C60.0678 52.5051 60.2001 50.4943 60.2001 48.4965C60.2001 45.9276 58.2742 43.7265 58.1936 43.6351ZM58.3775 30.2199C53.1946 25.7769 37.7955 13.1316 30.4868 13.1316C23.1739 13.1316 7.78661 25.7693 2.60054 30.2156C2.56935 29.1661 2.54032 28.5264 2.54032 27.5919C2.54032 27.5919 2.41344 26.0468 3.78012 24.5016C15.0232 14.3144 26.8105 9.33045 27.1718 9.17776C30.6868 7.69172 30.489 7.9713 30.4858 2.00994C30.4858 2.00994 30.6417 2.00027 30.7428 2.01102C35.6923 2.45941 49.001 15.3757 56.8764 24.1069C56.8903 24.122 58.4312 25.9048 58.4312 27.7855C58.4323 28.6651 58.4054 29.5339 58.3775 30.2199ZM58.1656 22.9306C57.328 22.0026 37.6203 0.247559 30.4858 0.247559C23.3534 0.247559 3.64356 22.0026 2.80806 22.9295L2.80699 22.9306C2.72527 23.022 0.800518 25.2209 0.800518 27.7855C0.800518 29.7812 0.933852 31.7898 0.934928 31.8092C0.939229 31.9017 0.985466 32.75 1.45644 32.9812C1.53278 33.0189 1.61558 33.0371 1.70053 33.0371C1.8758 33.0371 2.07042 32.9587 2.28225 32.8038C2.49623 32.6156 22.5739 14.8821 30.4858 14.8821C38.3988 14.8821 58.4775 32.6156 58.6785 32.7952C58.8968 32.9565 59.0947 33.0361 59.2721 33.0361C59.3581 33.0361 59.4388 33.0178 59.5162 32.9802C59.9861 32.75 60.0334 31.9006 60.0366 31.8049C60.0377 31.7898 60.1699 29.7812 60.1699 27.7855C60.171 25.2209 58.2473 23.022 58.1656 22.9306Z" fill="#737373"/>
</svg>
