<svg width="93" height="50" viewBox="0 0 93 50" fill="none" xmlns="http://www.w3.org/2000/svg">
<g clip-path="url(#clip0_557_82)">
<path fill-rule="evenodd" clip-rule="evenodd" d="M5.99445 0.0330811V7.70842H34.4001V11.5782V15.4483H5.99445V23.1236H37.3582C38.0776 23.1236 38.5519 22.9241 39.0422 22.431L47.2998 14.3987L55.5577 22.431C56.048 22.9241 56.5223 23.1236 57.2417 23.1236H88.6055V15.4483H60.1995V11.5782V7.70842H88.6055V0.0330811H57.2417C56.5223 0.0330811 56.048 0.232658 55.5577 0.725663L47.2998 8.75805L39.0422 0.725663C38.5519 0.232658 38.0776 0.0330811 37.3582 0.0330811H5.99445Z" fill="#7A7A7A"/>
<path fill-rule="evenodd" clip-rule="evenodd" d="M0.856934 40.3602V43.5321L12.5309 43.6069C12.8096 43.6069 12.9638 43.6708 13.1411 43.8481L14.3826 44.9209C14.4734 45.0117 14.515 45.0697 14.515 45.1633C14.515 45.2569 14.4734 45.3152 14.3826 45.406L13.1411 46.4788C12.9638 46.6561 12.8096 46.7201 12.5309 46.7201L0.856934 46.7948V49.9667H13.9925C14.4616 49.9667 14.6929 49.89 14.9938 49.5891L18.7472 45.7093C18.8886 45.568 18.9811 45.3472 18.9811 45.1633C18.9811 44.9795 18.8886 44.759 18.7472 44.6176L14.9938 40.7376C14.6929 40.4367 14.4616 40.3602 13.9925 40.3602H0.856934Z" fill="#7A7A7A"/>
<path d="M30.4917 40.3602C30.2851 40.3602 30.168 40.4016 30.087 40.4827L20.8718 49.7357C20.775 49.8329 20.8187 49.9667 20.9691 49.9667H25.4498L30.2021 45.037C30.3007 44.9384 30.3748 44.8972 30.4917 44.8972C30.6086 44.8972 30.6827 44.9384 30.7813 45.037L35.5336 49.9667H40.0143C40.1647 49.9667 40.2084 49.8329 40.1116 49.7357L30.8964 40.4827C30.8154 40.4016 30.6983 40.3602 30.4917 40.3602Z" fill="#7A7A7A"/>
<path fill-rule="evenodd" clip-rule="evenodd" d="M60.2034 40.3602V43.5321L48.5295 43.6069C48.2508 43.6069 48.0965 43.6708 47.9193 43.8481L46.6778 44.9209C46.587 45.0117 46.5453 45.0697 46.5453 45.1633C46.5453 45.2569 46.587 45.3152 46.6778 45.406L47.9193 46.4788C48.0965 46.6561 48.2508 46.7201 48.5295 46.7201L60.2034 46.7948V49.9667H47.0678C46.5987 49.9667 46.3675 49.89 46.0666 49.5891L42.3131 45.7093C42.1718 45.568 42.0792 45.3472 42.0792 45.1633C42.0792 44.9795 42.1718 44.759 42.3131 44.6176L46.0666 40.7376C46.3675 40.4367 46.5987 40.3602 47.0678 40.3602H60.2034Z" fill="#7A7A7A"/>
<path d="M69.3594 40.3602H65.6875V49.9667H69.3594V40.3602Z" fill="#7A7A7A"/>
<path d="M82.614 40.3602C82.4074 40.3602 82.2904 40.4016 82.2093 40.4827L72.9941 49.7357C72.8973 49.8329 72.941 49.9667 73.0914 49.9667H77.5721L82.3244 45.037C82.423 44.9384 82.4971 44.8972 82.614 44.8972C82.7309 44.8972 82.805 44.9384 82.9036 45.037L87.6559 49.9667H92.1367C92.2871 49.9667 92.3307 49.8329 92.2339 49.7357L83.0187 40.4827C82.9377 40.4016 82.8206 40.3602 82.614 40.3602Z" fill="#7A7A7A"/>
</g>
<defs>
<clipPath id="clip0_557_82">
<rect width="91.4286" height="49.9336" fill="white" transform="translate(0.857178 0.0332031)"/>
</clipPath>
</defs>
</svg>
