<svg width="79" height="40" viewBox="0 0 79 40" fill="none" xmlns="http://www.w3.org/2000/svg">
<path fill-rule="evenodd" clip-rule="evenodd" d="M47.6212 24.5765C48.2129 27.6343 46.6102 30.1742 45.2785 32.6396C43.7993 34.9334 41.358 36.9049 38.4236 36.6098C31.8388 36.5112 25.4032 35.5002 19.435 33.6995C19.164 33.6257 18.893 33.4525 18.7447 33.2064C18.6212 32.8609 18.7944 32.5401 19.0405 32.3189C24.4908 27.9045 30.9761 25.8584 37.3877 23.7121C39.7793 23.0218 42.3201 22.2818 45.0075 22.6274C46.1163 22.7757 47.2259 23.5406 47.6212 24.5765ZM70.0861 11.5072C73.144 14.0223 75.906 17.4506 74.9687 21.5932C73.4398 27.7089 66.7821 30.964 61.4802 33.0349C58.5947 33.997 55.6852 34.984 52.5287 35.2798C52.3315 35.2549 52.0107 35.3038 51.961 35.008L52.0348 34.6632C56.523 29.6074 59.9255 23.9367 62.9105 18.1906C64.2911 15.6009 65.5739 12.9383 66.7573 10.3238C66.9296 10.1266 67.1028 10.028 67.3 9.95424C68.4088 10.052 69.1986 10.9155 70.0861 11.5072ZM27.054 4.99702L26.9553 5.36662C20.47 12.7395 16.2039 21.2965 12.1599 29.8038C11.371 30.5438 10.6061 29.5569 9.89099 29.2362C6.29033 26.8694 3.03524 23.0467 3.97249 18.5096C5.47656 12.592 11.5674 9.43548 16.6481 7.29083C19.6563 6.15636 22.7887 5.24397 26.0927 4.72604C26.4382 4.72521 26.8816 4.67632 27.054 4.99702ZM59.2361 6.18039C59.6057 6.37762 60.0499 6.45137 60.2719 6.82097C60.4692 7.24028 60.0747 7.51126 59.8526 7.78307C54.7479 11.7774 48.904 13.9974 42.9358 15.9457C39.9019 16.6857 36.8441 18.0174 33.4664 17.2774C32.6766 17.0801 31.9623 16.5622 31.5181 15.7973C30.6795 13.4795 31.8139 11.063 32.8001 9.04102C34.1069 6.50109 36.4256 3.51698 39.631 3.46809C46.5356 3.41837 53.0458 4.45423 59.2361 6.18039ZM67.7683 6.37762C72.9965 9.23825 78.9149 14.2684 78.2984 20.9758C77.5832 27.1901 71.7882 31.53 66.6098 34.1445C51.4928 41.3698 30.261 41.5911 14.651 35.279C9.37306 33.0846 3.45456 29.3116 1.2345 23.6392C-0.466794 18.9787 1.6041 14.1209 5.08211 10.8907C12.3563 4.28186 21.6285 2.01374 31.1725 0.706073C41.5303 -0.551876 52.4292 0.557738 61.7014 3.73907C63.7731 4.50395 65.82 5.34259 67.7683 6.37762Z" fill="#737373"/>
</svg>
