<svg width="79" height="32" viewBox="0 0 79 32" fill="none" xmlns="http://www.w3.org/2000/svg">
<g clip-path="url(#clip0_557_64)">
<path d="M65.3847 17.0605C65.3215 20.5467 66.0745 22.3933 68.9483 22.3933C71.8174 22.3933 72.2292 19.2478 72.2292 16.8541C72.2292 14.4589 71.6848 12.1337 68.6703 12.1337C66.8211 12.1337 65.4558 13.5706 65.3847 17.0605ZM59.5707 31.6288V8.03037H65.4558C65.4558 8.03037 65.4558 8.3721 65.4558 8.98762C65.4558 10.2645 65.9708 9.73794 66.3857 9.24036C66.4552 9.15716 67.7668 7.55175 70.7207 7.55175C73.6656 7.55175 78.247 9.60314 78.247 16.8541C78.247 22.4628 75.5137 26.5661 70.7933 26.5661C68.1922 26.5661 66.6884 25.542 66.3446 25.1287C66.0002 24.7211 65.5221 24.65 65.5221 25.1287C65.5221 25.6083 65.5221 31.6288 65.5221 31.6288H59.5707Z" fill="#737373"/>
<path d="M14.084 0.371321H20.4457C20.4457 0.371321 20.4457 14.1866 20.4457 17.0605C20.4457 19.9312 19.213 25.9521 10.3909 25.9521C1.56766 25.9521 0.610413 20.3403 0.610413 17.1963V14.1187H6.7667C6.7667 14.1187 6.7667 15.2813 6.7667 17.1268C6.7667 18.9734 7.99828 20.6825 10.3224 20.6825C12.6476 20.6825 14.084 19.3836 14.084 17.1963C14.084 15.0075 14.084 0.371321 14.084 0.371321Z" fill="#737373"/>
<path d="M33.7499 14.5289C33.7499 12.8171 32.7942 11.1759 30.6054 11.1759C28.485 11.1759 27.7321 12.6792 27.7321 14.5289H33.7499ZM29.992 7.34638C34.9878 7.34638 39.3633 9.26088 39.3633 18.0846H27.5314C27.5314 20.889 28.693 22.0521 30.7449 22.0521C32.7974 22.0521 33.4808 20.4093 33.4808 20.4093H39.2964C39.2964 22.9409 35.8076 26.3608 30.5396 26.2928C24.5223 26.2928 21.5805 21.8467 21.5805 17.2637C21.5805 12.6792 24.1779 7.34638 29.992 7.34638Z" fill="#737373"/>
<path d="M52.6644 14.5289C52.6644 12.8171 51.7077 11.1759 49.5189 11.1759C47.3996 11.1759 46.645 12.6792 46.645 14.5289H52.6644ZM48.9065 7.34638C53.9018 7.34638 58.2763 9.26088 58.2763 18.0846H46.4449C46.4449 20.889 47.6075 22.0521 49.661 22.0521C51.7114 22.0521 52.3959 20.4093 52.3959 20.4093H58.2115C58.2115 22.9409 54.7221 26.3608 49.4557 26.2928C43.4352 26.2928 40.4935 21.8467 40.4935 17.2637C40.4935 12.6792 43.094 7.34638 48.9065 7.34638Z" fill="#737373"/>
<path d="M74.3518 28.7997C74.3518 27.8651 75.1127 27.1059 76.0504 27.1059C76.985 27.1059 77.7443 27.8651 77.7443 28.7997C77.7443 29.7328 76.985 30.4968 76.0504 30.4968C75.1127 30.4968 74.3518 29.7328 74.3518 28.7997ZM74.1559 28.7997C74.1559 29.8454 75.0026 30.6942 76.0504 30.6942C77.0914 30.6942 77.9428 29.8454 77.9428 28.7997C77.9428 27.754 77.0914 26.9052 76.0504 26.9052C75.0026 26.9052 74.1559 27.754 74.1559 28.7997Z" fill="#737373"/>
<path d="M76.8091 29.7686L76.4158 28.8397C76.5405 28.7966 76.5821 28.766 76.6485 28.6949C76.7348 28.6023 76.7891 28.4559 76.7891 28.3232C76.7891 27.9883 76.5316 27.7603 76.1583 27.7603H75.3685V29.7686H75.6028V28.8987H76.1735L76.5484 29.7686H76.8091ZM75.5965 28.6949V27.9788H76.1535C76.3863 27.9788 76.5342 28.1115 76.5342 28.3169C76.5342 28.5501 76.3773 28.6949 76.1209 28.6949H75.5965Z" fill="#737373"/>
</g>
<defs>
<clipPath id="clip0_557_64">
<rect width="77.7143" height="31.3352" fill="white" transform="translate(0.571472 0.332397)"/>
</clipPath>
</defs>
</svg>
