<svg width="78" height="42" viewBox="0 0 78 42" fill="none" xmlns="http://www.w3.org/2000/svg">
<g clip-path="url(#clip0_557_96)">
<path d="M45.0062 21.3573L41.6185 28.01H41.548L41.3767 21.3573H38.5431L38.4325 21.5967L38.6755 21.7449C38.91 21.9102 38.9756 22.0779 39.006 22.5396L39.39 30.6128H42.5468L47.6417 21.3573H45.0062ZM34.9221 26.1485C34.6049 27.0586 34.3558 27.6443 33.9876 28.0307C33.6984 28.3344 33.3169 28.5519 32.4384 28.5519C31.7494 28.5519 31.3654 28.27 31.3654 27.7366C31.3606 27.3927 31.4542 26.8702 31.8223 25.8532C32.1407 24.9443 32.3898 24.3586 32.7592 23.9722C33.0447 23.6684 33.4275 23.4497 34.3072 23.4497C34.9962 23.4497 35.3789 23.7316 35.3777 24.2626C35.385 24.6114 35.2914 25.1339 34.9221 26.1485ZM34.775 21.2431H34.481C32.7373 21.2431 31.7409 21.7133 30.9232 22.5821C29.9061 23.6575 28.951 26.5653 28.9693 28.1036C28.9887 29.6723 30.0033 30.7598 32.1358 30.7598H32.4481C34.1966 30.7598 35.193 30.2895 36.0108 29.4207C37.0266 28.3429 37.9622 25.4364 37.944 23.8993C37.9234 22.3318 36.9087 21.2431 34.775 21.2431ZM26.2134 24.7171C26.0542 25.112 25.8793 25.2068 25.6496 25.3003C25.4953 25.3611 25.1684 25.383 24.8537 25.383H23.635L24.2984 23.4704H25.7711C26.2122 23.4704 26.392 23.7 26.3981 23.9613C26.4005 24.1278 26.324 24.4327 26.2134 24.7171ZM25.9947 21.3573H21.9982L21.918 21.5967L22.0796 21.7559C22.2498 21.9236 22.2437 22.1228 22.0942 22.5506L19.3019 30.6128H21.8536L22.9448 27.4122L23.8087 27.4134L24.7687 30.6128H27.3325L26.1271 27.3381C26.827 27.225 27.1782 27.0246 27.5294 26.7123C28.0106 26.2724 28.3435 25.6551 28.6193 24.7462C29.0227 23.4279 28.7785 22.6745 28.5197 22.2881C28.1637 21.7559 27.4139 21.3573 25.9947 21.3573ZM52.7658 26.9006L53.473 24.965H50.2202L50.7245 23.4874H54.2482L55.0223 21.3512H48.3696L48.2772 21.6234L48.4364 21.7802C48.6077 21.9466 48.6005 22.1447 48.4522 22.5749L45.6818 30.6091H51.8982L52.6492 28.4584H49.0209L49.5555 26.9006H52.7658ZM60.2302 24.7171C60.071 25.112 59.8936 25.2068 59.6676 25.3003C59.5096 25.3611 59.1876 25.383 58.8729 25.383H57.6554L58.3128 23.4704H59.7879C60.2266 23.4704 60.4088 23.7 60.4125 23.9613C60.4173 24.1278 60.3383 24.4327 60.2302 24.7171ZM60.0078 21.3573H56.0126L55.9348 21.5967L56.0952 21.7559C56.2665 21.9236 56.258 22.1228 56.111 22.5506L53.3163 30.6128H55.8716L56.9616 27.4134H57.8243L58.7854 30.6128H61.3469L60.1439 27.3381C60.8426 27.225 61.1938 27.0246 61.5437 26.7123C62.0261 26.2724 62.3603 25.6551 62.6361 24.7462C63.0395 23.4279 62.7953 22.6745 62.5377 22.2881C62.1817 21.7559 61.4307 21.3573 60.0078 21.3573ZM65.2474 33.7781C58.2374 37.4003 48.8872 39.3955 38.9149 39.3955C28.9438 39.3955 19.5948 37.4003 12.5836 33.7781C5.84101 30.2932 2.12523 25.7548 2.12523 21.0013C2.12523 16.2442 5.84101 11.7058 12.5836 8.22328C19.5948 4.60228 28.9438 2.60465 38.9149 2.60465C48.8872 2.60465 58.2374 4.60228 65.2474 8.22328C71.9912 11.7058 75.7033 16.2442 75.7033 21.0013C75.7033 25.7548 71.9912 30.2932 65.2474 33.7781ZM66.1964 6.38605C58.896 2.61437 49.208 0.537762 38.9149 0.537762C28.6217 0.537762 18.9325 2.61437 11.6346 6.38605C7.31129 8.62062 0.0571289 13.4908 0.0571289 21.0013C0.0571289 28.5082 7.31129 33.3795 11.6346 35.6141C18.9313 39.3858 28.6193 41.4624 38.9149 41.4624C49.2092 41.4624 58.8972 39.3858 66.1964 35.6141C70.5197 33.3795 77.7714 28.5094 77.7714 21.0013C77.7714 13.4895 70.5197 8.62062 66.1964 6.38605ZM64.2656 31.8789C56.7234 35.7745 47.3416 37.2557 38.9149 37.2557C30.4869 37.2557 21.1076 35.7745 13.563 31.8789C9.57138 29.8144 4.26503 26.0112 4.26503 21.0013C4.26503 15.9866 9.57016 12.1869 13.563 10.1237C21.1076 6.22808 30.4869 4.74688 38.9149 4.74688C47.3416 4.74688 56.7234 6.22565 64.2656 10.1237C68.2608 12.1869 73.5647 15.9866 73.5647 21.0013C73.5647 26.0136 68.2596 29.8144 64.2656 31.8789ZM64.6568 9.36426C56.9992 5.40424 47.4643 3.88901 38.9149 3.88901C30.3642 3.88901 20.8317 5.40546 13.1705 9.36426C8.86905 11.5855 3.40959 15.5953 3.40959 21.0013C3.40959 26.4024 8.86905 30.4147 13.1705 32.6383C20.8317 36.5947 30.3666 38.1112 38.9149 38.1112C47.4643 38.1112 56.9992 36.5971 64.6568 32.6383C68.9607 30.4147 74.4202 26.4024 74.4202 21.0013C74.4202 15.5953 68.9619 11.5855 64.6568 9.36426ZM19.5996 22.5506L12.6164 24.8471L11.7634 27.1874H17.9216L18.7235 24.982H14.4549L19.3007 23.3416L19.5996 22.5506ZM47.3866 12.2963H48.3988C49.0877 12.2963 49.468 12.5272 49.4765 13.0606C49.4826 13.4045 49.3903 13.8759 49.033 14.8905C48.7171 15.7982 48.4644 16.3244 48.1059 16.7096C47.8179 17.0133 47.4352 17.1482 46.5567 17.1482H45.7109L47.3866 12.2963ZM45.1678 11.2938L42.4047 19.356H46.4813C48.2286 19.356 49.2262 18.9684 50.0355 18.1008C51.0513 17.0267 51.9797 14.232 51.9493 12.6936C51.9189 11.1237 50.9055 10.1018 48.773 10.1018H45.0694L44.9916 10.34L45.152 10.4967C45.3221 10.6656 45.316 10.8649 45.1678 11.2938ZM60.551 13.4203H54.3928L53.5909 15.6233H57.8583L53.0113 17.2685L52.7124 18.0571L59.6956 15.7606L60.551 13.4203ZM33.0277 19.3512H35.3486L37.3729 13.3644L38.5564 19.3512H40.8797L44.0463 10.0982L41.6185 10.1018L39.9271 15.1311L38.9611 10.1018H35.6888L35.6086 10.34L35.769 10.4967C35.9415 10.6656 35.933 10.8649 35.786 11.2938L33.0277 19.3512ZM16.3881 19.356L22.703 19.3536L23.4661 17.1482H19.7952L22.2206 10.1018H19.054L18.9751 10.34L19.133 10.4967C19.3056 10.6656 19.2983 10.8649 19.15 11.2938L16.3881 19.356ZM29.8235 12.6596H29.9061L29.9499 15.4544H28.2463L29.8235 12.6596ZM23.3579 19.3512H26.0445L27.2086 17.3062H29.99L30.0179 19.3512H32.4554L31.9293 10.1018H28.2803L28.1989 10.34L28.3168 10.4579C28.5087 10.6462 28.4298 10.9172 27.7189 12.0448L23.3579 19.3512Z" fill="#737373"/>
</g>
<defs>
<clipPath id="clip0_557_96">
<rect width="77.7143" height="40.9246" fill="white" transform="translate(0.0571289 0.53772)"/>
</clipPath>
</defs>
</svg>
