<svg width="65" height="64" viewBox="0 0 65 64" fill="none" xmlns="http://www.w3.org/2000/svg">
<path fill-rule="evenodd" clip-rule="evenodd" d="M47.0231 5.04723C56.7023 10.1376 63.3143 20.2864 63.3143 31.9848C63.3143 43.6832 56.7023 53.864 47.0231 58.9232V55.4448C50.7247 53.2304 53.8559 50.132 56.1343 46.4648L47.0231 42.7664V37.1384L57.0191 44.948C59.1071 41.0904 60.2775 36.6952 60.2775 31.984C60.2775 22.056 54.9623 13.3304 47.0231 8.52403V5.04723ZM32.9463 1.60083C38.0079 1.60083 42.7839 2.83443 47.0231 5.04723V8.52563C43.1319 6.18483 38.5767 4.79443 33.7687 4.63603L37.2479 29.5192L47.0231 37.1392V42.7672L32.8823 37.044L18.8367 42.7984V37.2016L28.6751 29.5184L32.1231 4.63523C27.2511 4.79363 22.7279 6.18483 18.8367 8.52403V5.04723C23.0447 2.83443 27.8527 1.60083 32.9463 1.60083ZM47.0231 58.9232C42.7839 61.136 38.0071 62.4 32.9463 62.4C27.8535 62.4 23.0455 61.136 18.8375 58.9544V55.4448C22.9503 57.9416 27.7895 59.3648 32.9463 59.3648C38.0711 59.3648 42.8799 57.9416 47.0231 55.4448V58.9232ZM18.8375 58.9544C9.12548 53.864 2.51428 43.6832 2.51428 31.9848C2.51428 20.2864 9.12548 10.1376 18.8375 5.04723V8.52563C10.8655 13.3312 5.55108 22.0256 5.55108 31.9848C5.55108 36.6952 6.75348 41.1544 8.84148 45.0112L18.8375 37.2016V42.7984L9.75828 46.528C12.0359 50.1656 15.1359 53.2312 18.8375 55.4448V58.9544Z" fill="#737373"/>
</svg>
