<svg width="74" height="58" viewBox="0 0 74 58" fill="none" xmlns="http://www.w3.org/2000/svg">
<path d="M36.5721 54.1257C22.7174 54.1257 11.4452 42.8534 11.4452 28.9987C11.4452 28.2837 11.4819 27.5769 11.5432 26.8783L32.548 28.1898L23.4572 34.4737C23.3347 34.5595 23.2529 34.7025 23.2529 34.8618C23.2529 35.1233 23.4654 35.3399 23.7269 35.3399H60.8907C58.0715 46.1341 48.2367 54.1262 36.5722 54.1262M36.5722 3.87131C50.4311 3.87131 61.6992 15.1435 61.6992 28.9982C61.6992 29.7092 61.6625 30.412 61.6053 31.1065H61.593L40.5882 29.7704L49.7034 23.5233C49.8301 23.4375 49.9077 23.2945 49.9077 23.1351C49.9077 22.8696 49.6953 22.6571 49.4338 22.6571H12.2575C15.0725 11.8629 24.9072 3.87073 36.5717 3.87073M72.5954 31.805L65.7191 31.3679L64.8897 31.3147C64.951 30.5507 64.9919 29.7784 64.9919 28.9981C64.9919 13.3297 52.2438 0.581665 36.5712 0.581665C23.0805 0.581665 11.7664 10.0321 8.87436 22.6565H2.59455C2.23909 22.6565 1.92449 22.824 1.72428 23.0855L0.118548 25.3041C0.0450174 25.398 6.10352e-05 25.5166 6.10352e-05 25.6432C6.10352e-05 25.9456 0.245205 26.1907 0.551638 26.1907L7.3994 26.6156L8.25741 26.6729C8.19611 27.441 8.15533 28.2132 8.15533 28.9977C8.15533 44.6661 20.9034 57.4184 36.5718 57.4184C50.0625 57.4184 61.3807 47.9639 64.2686 35.3393H70.5525C70.908 35.3393 71.2226 35.1718 71.4228 34.9103L73.0285 32.6917C73.1021 32.5978 73.1429 32.4793 73.1429 32.3526C73.1429 32.0503 72.8978 31.8051 72.5954 31.8051" fill="#737373"/>
</svg>
