<svg width="83" height="84" viewBox="0 0 83 84" fill="none" xmlns="http://www.w3.org/2000/svg">
<path d="M75.1232 28.157C75.1232 29.5692 73.9521 30.7403 72.54 30.7403H10.5416C9.12945 30.7403 7.95837 29.5692 7.95837 28.157C7.95837 26.7449 9.12945 25.5738 10.5416 25.5738H14.0549L15.3637 19.3395C16.6037 13.3119 19.187 7.76648 29.4511 7.76648H53.6305C63.8946 7.76648 66.4779 13.3119 67.7179 19.3395L69.0267 25.5738H72.54C73.9521 25.5738 75.1232 26.7449 75.1232 28.157Z" fill="#32CD32"/>
<path d="M76.6041 47.6522C76.0875 41.969 74.572 35.907 63.5156 35.907H19.5657C8.50933 35.907 7.02826 41.969 6.47717 47.6522L4.54833 68.6283C4.30722 71.246 5.16831 73.8637 6.95938 75.827C8.78488 77.8247 11.3681 78.9614 14.1236 78.9614H20.599C26.1789 78.9614 27.2466 75.7581 27.9355 73.6571L28.6243 71.5905C29.4165 69.2139 29.6232 68.6283 32.7231 68.6283H50.3582C53.4581 68.6283 53.5614 68.9727 54.457 71.5905L55.1458 73.6571C55.8347 75.7581 56.9025 78.9614 62.4823 78.9614H68.9577C71.6787 78.9614 74.2964 77.8247 76.1219 75.827C77.913 73.8637 78.7741 71.246 78.533 68.6283L76.6041 47.6522ZM31.2076 54.8509H20.8746C19.4624 54.8509 18.2913 53.6798 18.2913 52.2676C18.2913 50.8555 19.4624 49.6844 20.8746 49.6844H31.2076C32.6198 49.6844 33.7909 50.8555 33.7909 52.2676C33.7909 53.6798 32.6198 54.8509 31.2076 54.8509ZM62.2068 54.8509H51.8737C50.4615 54.8509 49.2904 53.6798 49.2904 52.2676C49.2904 50.8555 50.4615 49.6844 51.8737 49.6844H62.2068C63.6189 49.6844 64.79 50.8555 64.79 52.2676C64.79 53.6798 63.6189 54.8509 62.2068 54.8509Z" fill="#32CD32"/>
</svg>
