<svg width="83" height="84" viewBox="0 0 83 84" fill="none" xmlns="http://www.w3.org/2000/svg">
<path d="M57.9015 12.8643V7.4911C57.9015 6.07892 56.7305 4.90784 55.3183 4.90784C53.9061 4.90784 52.735 6.07892 52.735 7.4911V12.6576H30.3467V7.4911C30.3467 6.07892 29.1757 4.90784 27.7635 4.90784C26.3513 4.90784 25.1802 6.07892 25.1802 7.4911V12.8643C15.8805 13.7254 11.3684 19.2708 10.6795 27.5028C10.6106 28.5016 11.4373 29.3283 12.4017 29.3283H70.6801C71.6789 29.3283 72.5056 28.4672 72.4023 27.5028C71.7134 19.2708 67.2013 13.7254 57.9015 12.8643Z" fill="#32CD32"/>
<path d="M69.0958 34.4948H13.9862C12.0918 34.4948 10.5418 36.0447 10.5418 37.9391V59.1563C10.5418 69.4894 15.7083 76.3781 27.7636 76.3781H55.3184C67.3736 76.3781 72.5401 69.4894 72.5401 59.1563V37.9391C72.5401 36.0447 70.9902 34.4948 69.0958 34.4948ZM31.9312 63.324C31.759 63.4617 31.5868 63.634 31.4146 63.7373C31.2079 63.8751 31.0013 63.9784 30.7946 64.0473C30.5879 64.1506 30.3813 64.2195 30.1746 64.2539C29.9335 64.2884 29.7268 64.3228 29.4857 64.3228C29.038 64.3228 28.5902 64.2195 28.1769 64.0473C27.7291 63.8751 27.3847 63.634 27.0402 63.324C26.4203 62.6695 26.0414 61.774 26.0414 60.8785C26.0414 59.9829 26.4203 59.0874 27.0402 58.433C27.3847 58.123 27.7291 57.8819 28.1769 57.7097C28.7969 57.4341 29.4857 57.3652 30.1746 57.503C30.3813 57.5375 30.5879 57.6063 30.7946 57.7097C31.0013 57.7786 31.2079 57.8819 31.4146 58.0197C31.5868 58.1574 31.759 58.2952 31.9312 58.433C32.5512 59.0874 32.9301 59.9829 32.9301 60.8785C32.9301 61.774 32.5512 62.6695 31.9312 63.324ZM31.9312 51.2687C31.2768 51.8887 30.3813 52.2676 29.4857 52.2676C28.5902 52.2676 27.6947 51.8887 27.0402 51.2687C26.4203 50.6143 26.0414 49.7188 26.0414 48.8232C26.0414 47.9277 26.4203 47.0322 27.0402 46.3778C28.0047 45.4133 29.5202 45.1034 30.7946 45.6544C31.2424 45.8267 31.6212 46.0678 31.9312 46.3778C32.5512 47.0322 32.9301 47.9277 32.9301 48.8232C32.9301 49.7188 32.5512 50.6143 31.9312 51.2687ZM43.9865 63.324C43.332 63.9439 42.4365 64.3228 41.541 64.3228C40.6454 64.3228 39.7499 63.9439 39.0955 63.324C38.4755 62.6695 38.0966 61.774 38.0966 60.8785C38.0966 59.9829 38.4755 59.0874 39.0955 58.433C40.3699 57.1586 42.712 57.1586 43.9865 58.433C44.6064 59.0874 44.9853 59.9829 44.9853 60.8785C44.9853 61.774 44.6064 62.6695 43.9865 63.324ZM43.9865 51.2687C43.8142 51.4065 43.642 51.5443 43.4698 51.6821C43.2631 51.8198 43.0565 51.9232 42.8498 51.9921C42.6432 52.0954 42.4365 52.1643 42.2298 52.1987C41.9887 52.2332 41.7821 52.2676 41.541 52.2676C40.6454 52.2676 39.7499 51.8887 39.0955 51.2687C38.4755 50.6143 38.0966 49.7188 38.0966 48.8232C38.0966 47.9277 38.4755 47.0322 39.0955 46.3778C39.4055 46.0678 39.7843 45.8267 40.2321 45.6544C41.5065 45.1034 43.022 45.4133 43.9865 46.3778C44.6064 47.0322 44.9853 47.9277 44.9853 48.8232C44.9853 49.7188 44.6064 50.6143 43.9865 51.2687ZM56.0417 63.324C55.3873 63.9439 54.4917 64.3228 53.5962 64.3228C52.7007 64.3228 51.8051 63.9439 51.1507 63.324C50.5307 62.6695 50.1518 61.774 50.1518 60.8785C50.1518 59.9829 50.5307 59.0874 51.1507 58.433C52.4251 57.1586 54.7673 57.1586 56.0417 58.433C56.6617 59.0874 57.0405 59.9829 57.0405 60.8785C57.0405 61.774 56.6617 62.6695 56.0417 63.324ZM56.0417 51.2687C55.8695 51.4065 55.6972 51.5443 55.525 51.6821C55.3184 51.8198 55.1117 51.9232 54.905 51.9921C54.6984 52.0954 54.4917 52.1643 54.2851 52.1987C54.044 52.2332 53.8029 52.2676 53.5962 52.2676C52.7007 52.2676 51.8051 51.8887 51.1507 51.2687C50.5307 50.6143 50.1518 49.7188 50.1518 48.8232C50.1518 47.9277 50.5307 47.0322 51.1507 46.3778C51.4951 46.0678 51.8396 45.8267 52.2873 45.6544C52.9073 45.3789 53.5962 45.31 54.2851 45.4478C54.4917 45.4822 54.6984 45.5511 54.905 45.6544C55.1117 45.7233 55.3184 45.8267 55.525 45.9644C55.6972 46.1022 55.8695 46.24 56.0417 46.3778C56.6617 47.0322 57.0405 47.9277 57.0405 48.8232C57.0405 49.7188 56.6617 50.6143 56.0417 51.2687Z" fill="#32CD32"/>
</svg>
