<svg width="83" height="84" viewBox="0 0 83 84" fill="none" xmlns="http://www.w3.org/2000/svg">
<path d="M71.1954 30.5682C67.6133 14.6209 53.6981 7.49109 41.5051 7.49109C41.5051 7.49109 41.5051 7.49109 41.4706 7.49109C29.3121 7.49109 15.4314 14.6209 11.8148 30.5338C7.75046 48.3066 18.6346 63.3585 28.4854 72.8649C32.1365 76.3781 36.8208 78.1347 41.5051 78.1347C46.1894 78.1347 50.8737 76.3781 54.4903 72.8649C64.3411 63.3585 75.2253 48.3411 71.1954 30.5682ZM52.8026 33.427L39.0252 47.2044C38.5085 47.7211 37.8541 47.9622 37.1997 47.9622C36.5452 47.9622 35.8908 47.7211 35.3741 47.2044L30.2076 42.0379C29.2088 41.0391 29.2088 39.3858 30.2076 38.3869C31.2065 37.3881 32.8598 37.3881 33.8586 38.3869L37.1997 41.7279L49.1516 29.776C50.1504 28.7772 51.8037 28.7772 52.8026 29.776C53.8014 30.7749 53.8014 32.4282 52.8026 33.427Z" fill="#32CD32"/>
</svg>
