<svg width="99" height="100" viewBox="0 0 99 100" fill="none" xmlns="http://www.w3.org/2000/svg">
<circle cx="49.283" cy="50.0183" r="47.0348" fill="#32CD32" stroke="white" stroke-width="4.03289"/>
<path d="M30.6063 41.2427C29.086 41.2427 27.6757 41.0046 26.3752 40.5284C25.0748 40.0339 23.9484 39.3379 22.9959 38.4404C22.0618 37.5429 21.3292 36.4897 20.798 35.2808C20.2668 34.0537 20.0013 32.7074 20.0013 31.2422C20.0013 29.7769 20.2668 28.4398 20.798 27.2309C21.3292 26.0038 22.071 24.9414 23.0234 24.0439C23.9758 23.1465 25.1023 22.4596 26.4027 21.9834C27.7215 21.4889 29.1593 21.2416 30.7162 21.2416C32.5294 21.2416 34.1504 21.5438 35.5791 22.1482C37.0077 22.7527 38.1891 23.6227 39.1232 24.7583L35.6615 27.8903C35.0021 27.176 34.2878 26.6448 33.5185 26.2968C32.7675 25.9305 31.925 25.7473 30.9909 25.7473C30.1667 25.7473 29.4157 25.8756 28.738 26.132C28.0603 26.3884 27.4834 26.7639 27.0071 27.2584C26.5309 27.7346 26.1555 28.3116 25.8807 28.9893C25.6243 29.6487 25.4961 30.3996 25.4961 31.2422C25.4961 32.0481 25.6243 32.7899 25.8807 33.4676C26.1555 34.1453 26.5309 34.7314 27.0071 35.2259C27.4834 35.7021 28.0512 36.0776 28.7105 36.3523C29.3882 36.6088 30.13 36.737 30.9359 36.737C31.7419 36.737 32.5294 36.6088 33.2987 36.3523C34.068 36.0776 34.8464 35.6197 35.634 34.9786L38.6836 38.7975C37.5847 39.5851 36.3117 40.1895 34.8647 40.6108C33.4178 41.0321 31.9983 41.2427 30.6063 41.2427ZM33.8757 38.0832V30.83H38.6836V38.7975L33.8757 38.0832ZM47.1328 29.0717H56.0619V33.1379H47.1328V29.0717ZM47.5174 36.6546H57.5729V40.8581H42.1325V21.6262H57.2158V25.8298H47.5174V36.6546ZM64.6853 40.8581V25.9397H58.7784V21.6262H76.0046V25.9397H70.1252V40.8581H64.6853Z" fill="white"/>
<path d="M37.7488 78.6698C36.2286 78.6698 34.8183 78.4317 33.5178 77.9554C32.2174 77.4609 31.0909 76.7649 30.1385 75.8674C29.2044 74.9699 28.4717 73.9168 27.9406 72.7079C27.4094 71.4807 27.1438 70.1345 27.1438 68.6692C27.1438 67.2039 27.4094 65.8668 27.9406 64.658C28.4717 63.4308 29.2136 62.3685 30.166 61.471C31.1184 60.5735 32.2449 59.8867 33.5453 59.4104C34.8641 58.9159 36.3019 58.6686 37.8587 58.6686C39.672 58.6686 41.293 58.9709 42.7216 59.5753C44.1503 60.1797 45.3317 61.0497 46.2658 62.1853L42.8041 65.3174C42.1447 64.603 41.4304 64.0719 40.6611 63.7239C39.9101 63.3575 39.0676 63.1744 38.1335 63.1744C37.3092 63.1744 36.5583 63.3026 35.8806 63.559C35.2029 63.8154 34.6259 64.1909 34.1497 64.6855C33.6735 65.1617 33.298 65.7386 33.0233 66.4163C32.7669 67.0757 32.6387 67.8267 32.6387 68.6692C32.6387 69.4751 32.7669 70.2169 33.0233 70.8946C33.298 71.5723 33.6735 72.1584 34.1497 72.6529C34.6259 73.1292 35.1937 73.5046 35.8531 73.7794C36.5308 74.0358 37.2726 74.164 38.0785 74.164C38.8844 74.164 39.672 74.0358 40.4413 73.7794C41.2106 73.5046 41.989 73.0467 42.7766 72.4057L45.8262 76.2246C44.7273 77.0122 43.4543 77.6166 42.0073 78.0379C40.5603 78.4591 39.1409 78.6698 37.7488 78.6698ZM41.0182 75.5103V68.2571H45.8262V76.2246L41.0182 75.5103ZM58.9734 78.6698C57.4349 78.6698 56.0154 78.4225 54.7149 77.928C53.4145 77.4334 52.2789 76.7374 51.3082 75.8399C50.3557 74.9241 49.6139 73.8618 49.0828 72.6529C48.5516 71.4441 48.286 70.1162 48.286 68.6692C48.286 67.2222 48.5516 65.8943 49.0828 64.6855C49.6139 63.4766 50.3557 62.4234 51.3082 61.5259C52.2789 60.6101 53.4145 59.905 54.7149 59.4104C56.0154 58.9159 57.4349 58.6686 58.9734 58.6686C60.5303 58.6686 61.9498 58.9159 63.2319 59.4104C64.5323 59.905 65.6588 60.6101 66.6112 61.5259C67.5637 62.4234 68.3055 63.4766 68.8366 64.6855C69.3861 65.8943 69.6608 67.2222 69.6608 68.6692C69.6608 70.1162 69.3861 71.4532 68.8366 72.6804C68.3055 73.8893 67.5637 74.9425 66.6112 75.8399C65.6588 76.7374 64.5323 77.4334 63.2319 77.928C61.9498 78.4225 60.5303 78.6698 58.9734 78.6698ZM58.9734 74.164C59.7061 74.164 60.3838 74.0358 61.0065 73.7794C61.6476 73.523 62.197 73.1566 62.6549 72.6804C63.1312 72.1859 63.4975 71.5998 63.7539 70.9221C64.0287 70.2444 64.166 69.4934 64.166 68.6692C64.166 67.8267 64.0287 67.0757 63.7539 66.4163C63.4975 65.7386 63.1312 65.1617 62.6549 64.6855C62.197 64.1909 61.6476 63.8154 61.0065 63.559C60.3838 63.3026 59.7061 63.1744 58.9734 63.1744C58.2408 63.1744 57.5539 63.3026 56.9129 63.559C56.2901 63.8154 55.7406 64.1909 55.2644 64.6855C54.8065 65.1617 54.4402 65.7386 54.1655 66.4163C53.909 67.0757 53.7808 67.8267 53.7808 68.6692C53.7808 69.4934 53.909 70.2444 54.1655 70.9221C54.4402 71.5998 54.8065 72.1859 55.2644 72.6804C55.7406 73.1566 56.2901 73.523 56.9129 73.7794C57.5539 74.0358 58.2408 74.164 58.9734 74.164Z" fill="white"/>
<g clip-path="url(#clip0_62_125)">
<path d="M53.6398 58.631L26.249 58.6581L42.6755 53.1633L39.9288 44.9489L67.3171 44.9206L50.8906 50.4153L53.6398 58.631Z" fill="white"/>
</g>
<defs>
<clipPath id="clip0_62_125">
<rect width="45.4523" height="42.2793" fill="white" transform="matrix(0.914637 0.404275 -0.490343 0.87153 39.5439 22.0335)"/>
</clipPath>
</defs>
</svg>
