<svg width="99" height="99" viewBox="0 0 99 99" fill="none" xmlns="http://www.w3.org/2000/svg">
<circle cx="49.4999" cy="49.8871" r="46.8977" fill="#32CD32" stroke="black" stroke-width="4.02114"/>
<path d="M30.8729 41.2127C29.3569 41.2127 27.9505 40.9752 26.6538 40.5003C25.357 40.0072 24.2337 39.3131 23.284 38.4182C22.3525 37.5232 21.6219 36.473 21.0922 35.2675C20.5625 34.0438 20.2977 32.7014 20.2977 31.2402C20.2977 29.7791 20.5625 28.4457 21.0922 27.2403C21.6219 26.0166 22.3616 24.9572 23.3114 24.0622C24.2611 23.1673 25.3844 22.4824 26.6812 22.0075C27.9962 21.5143 29.43 21.2678 30.9825 21.2678C32.7907 21.2678 34.4071 21.5691 35.8317 22.1719C37.2563 22.7746 38.4344 23.6422 39.3659 24.7746L35.9139 27.8978C35.2564 27.1855 34.544 26.6558 33.7769 26.3088C33.0281 25.9435 32.1879 25.7609 31.2564 25.7609C30.4345 25.7609 29.6857 25.8887 29.0099 26.1444C28.3341 26.4001 27.7588 26.7745 27.2839 27.2677C26.809 27.7426 26.4346 28.3179 26.1606 28.9937C25.9049 29.6512 25.7771 30.4 25.7771 31.2402C25.7771 32.0439 25.9049 32.7836 26.1606 33.4594C26.4346 34.1351 26.809 34.7196 27.2839 35.2128C27.7588 35.6876 28.325 36.0621 28.9825 36.336C29.6583 36.5917 30.398 36.7196 31.2016 36.7196C32.0053 36.7196 32.7907 36.5917 33.5578 36.336C34.3249 36.0621 35.1011 35.6054 35.8865 34.9662L38.9275 38.7743C37.8317 39.5597 36.5623 40.1624 35.1194 40.5825C33.6765 41.0026 32.261 41.2127 30.8729 41.2127ZM34.1331 38.062V30.8293H38.9275V38.7743L34.1331 38.062ZM47.3529 29.0759H56.2569V33.1306H47.3529V29.0759ZM47.7365 36.6374H57.7637V40.8291H42.3667V21.6513H57.4075V25.843H47.7365V36.6374ZM64.8561 40.8291V25.9526H58.9657V21.6513H76.1435V25.9526H70.2806V40.8291H64.8561Z" fill="black"/>
<path d="M37.8239 79.4553C36.3079 79.4553 34.9015 79.2179 33.6048 78.743C32.308 78.2499 31.1847 77.5558 30.2349 76.6609C29.3035 75.7659 28.5729 74.7157 28.0432 73.5102C27.5135 72.2865 27.2487 70.9441 27.2487 69.4829C27.2487 68.0217 27.5135 66.6884 28.0432 65.483C28.5729 64.2592 29.3126 63.1999 30.2623 62.3049C31.2121 61.41 32.3354 60.725 33.6321 60.2502C34.9472 59.757 36.381 59.5105 37.9334 59.5105C39.7416 59.5105 41.3581 59.8118 42.7827 60.4145C44.2073 61.0173 45.3854 61.8848 46.3169 63.0172L42.8649 66.1405C42.2074 65.4282 41.495 64.8985 40.7279 64.5515C39.9791 64.1862 39.1389 64.0035 38.2074 64.0035C37.3855 64.0035 36.6367 64.1314 35.9609 64.3871C35.2851 64.6428 34.7098 65.0172 34.2349 65.5104C33.76 65.9852 33.3856 66.5606 33.1116 67.2364C32.8559 67.8939 32.7281 68.6427 32.7281 69.4829C32.7281 70.2865 32.8559 71.0262 33.1116 71.702C33.3856 72.3778 33.76 72.9623 34.2349 73.4554C34.7098 73.9303 35.276 74.3047 35.9335 74.5787C36.6093 74.8344 37.349 74.9623 38.1526 74.9623C38.9563 74.9623 39.7416 74.8344 40.5087 74.5787C41.2759 74.3047 42.0521 73.8481 42.8375 73.2089L45.8785 77.017C44.7827 77.8024 43.5133 78.4051 42.0704 78.8252C40.6275 79.2453 39.212 79.4553 37.8239 79.4553ZM41.0841 76.3047V69.0719H45.8785V77.017L41.0841 76.3047ZM58.9888 79.4553C57.4545 79.4553 56.039 79.2088 54.7423 78.7156C53.4455 78.2225 52.3131 77.5284 51.345 76.6335C50.3953 75.7202 49.6556 74.6609 49.1259 73.4554C48.5962 72.25 48.3314 70.9258 48.3314 69.4829C48.3314 68.04 48.5962 66.7158 49.1259 65.5104C49.6556 64.3049 50.3953 63.2547 51.345 62.3597C52.3131 61.4465 53.4455 60.7433 54.7423 60.2502C56.039 59.757 57.4545 59.5105 58.9888 59.5105C60.5412 59.5105 61.9567 59.757 63.2353 60.2502C64.532 60.7433 65.6553 61.4465 66.6051 62.3597C67.5548 63.2547 68.2945 64.3049 68.8242 65.5104C69.3722 66.7158 69.6461 68.04 69.6461 69.4829C69.6461 70.9258 69.3722 72.2591 68.8242 73.4828C68.2945 74.6883 67.5548 75.7385 66.6051 76.6335C65.6553 77.5284 64.532 78.2225 63.2353 78.7156C61.9567 79.2088 60.5412 79.4553 58.9888 79.4553ZM58.9888 74.9623C59.7193 74.9623 60.3951 74.8344 61.0161 74.5787C61.6554 74.323 62.2033 73.9577 62.6599 73.4828C63.1348 72.9897 63.5001 72.4052 63.7558 71.7294C64.0298 71.0536 64.1668 70.3048 64.1668 69.4829C64.1668 68.6427 64.0298 67.8939 63.7558 67.2364C63.5001 66.5606 63.1348 65.9852 62.6599 65.5104C62.2033 65.0172 61.6554 64.6428 61.0161 64.3871C60.3951 64.1314 59.7193 64.0035 58.9888 64.0035C58.2582 64.0035 57.5733 64.1314 56.934 64.3871C56.313 64.6428 55.7651 65.0172 55.2902 65.5104C54.8336 65.9852 54.4683 66.5606 54.1943 67.2364C53.9386 67.8939 53.8108 68.6427 53.8108 69.4829C53.8108 70.3048 53.9386 71.0536 54.1943 71.7294C54.4683 72.4052 54.8336 72.9897 55.2902 73.4828C55.7651 73.9577 56.313 74.323 56.934 74.5787C57.5733 74.8344 58.2582 74.9623 58.9888 74.9623Z" fill="black"/>
<g clip-path="url(#clip0_557_35)">
<path d="M53.8443 58.4747L26.5334 58.5017L42.912 53.0229L40.1732 44.8324L67.4818 44.8042L51.1031 50.2829L53.8443 58.4747Z" fill="black"/>
</g>
<defs>
<clipPath id="clip0_557_35">
<rect width="44.6017" height="42.7155" fill="white" transform="matrix(0.907078 0.420963 -0.472318 0.881428 39.2937 22.1611)"/>
</clipPath>
</defs>
</svg>
